<svg width="1200" height="630" viewBox="0 0 1200 630" fill="none" xmlns="http://www.w3.org/2000/svg">
  <rect width="1200" height="630" rx="36" fill="#0D1320"/>
  <circle cx="201" cy="112" r="208" fill="#2748B7" fill-opacity="0.45"/>
  <circle cx="1048" cy="545" r="228" fill="#2EA779" fill-opacity="0.28"/>
  <rect x="88" y="82" width="1024" height="466" rx="28" fill="#131C2E" stroke="#33415E"/>
  <rect x="126" y="126" width="168" height="168" rx="24" fill="#2F57D8"/>
  <path d="M173 230V172H189L210 210L231 172H247V230H231V197L216 223H204L189 197V230H173Z" fill="white"/>
  <text x="328" y="212" fill="white" font-family="'IBM Plex Sans', Arial, sans-serif" font-size="72" font-weight="700">MailFlow</text>
  <text x="328" y="282" fill="#9AA6BF" font-family="'IBM Plex Sans', Arial, sans-serif" font-size="30">
    Контент-план, рассылки и проектный контроль для B2B-команд
  </text>
  <rect x="328" y="336" width="215" height="52" rx="16" fill="#22304F"/>
  <text x="364" y="370" fill="#7AA2FF" font-family="'IBM Plex Sans', Arial, sans-serif" font-size="26" font-weight="600">Dashboard</text>
  <rect x="563" y="336" width="248" height="52" rx="16" fill="#22304F"/>
  <text x="601" y="370" fill="#7AA2FF" font-family="'IBM Plex Sans', Arial, sans-serif" font-size="26" font-weight="600">Content plan</text>
  <rect x="831" y="336" width="197" height="52" rx="16" fill="#22304F"/>
  <text x="869" y="370" fill="#7AA2FF" font-family="'IBM Plex Sans', Arial, sans-serif" font-size="26" font-weight="600">Mailings</text>
</svg>
